# 3ds Max Wavefront OBJ Exporter v0.97b - (c)2007 guruware
# File Created: 17.03.2021 20:01:22

mtllib HouseLowPoly.mtl

#
# object Object012
#

v  30.9862 -0.0000 -39.1619
v  23.5336 -0.0000 -39.1619
v  27.2599 18.7483 -37.0106
v  27.2599 -0.0000 -32.7078
v  -17.7554 -0.0000 -48.3282
v  -25.2080 -0.0000 -48.3282
v  -21.4817 18.7483 -46.1768
v  -21.4817 -0.0000 -41.8740
v  -27.9243 -0.0000 -52.2872
v  -32.9032 -0.0000 -51.4093
v  -30.1603 12.7187 -50.4109
v  -29.6535 -0.0000 -47.5363
v  -18.0026 0.0000 -52.9670
v  -21.7068 0.0000 -52.6429
v  -19.7612 9.3544 -51.7356
v  -19.5740 0.0000 -49.5969
v  -48.9161 -0.0000 13.6454
v  -53.8951 -0.0000 14.5233
v  -51.1522 12.7187 15.5217
v  -50.6453 -0.0000 18.3963
v  -49.4417 -0.0000 20.1445
v  -56.8943 -0.0000 20.1444
v  -53.1680 18.7483 22.2958
v  -53.1680 -0.0000 26.5986
v  20.9766 0.0000 -9.7966
v  20.9766 8.8692 -5.1151
v  20.1255 8.8692 -5.1151
v  20.1451 0.0000 -9.7966
v  20.9766 0.0000 -12.3920
v  20.9766 23.6476 -0.0000
v  20.9766 18.5601 -0.0000
v  20.9766 10.8398 -4.0750
v  20.2460 18.5601 -0.0000
v  20.2630 10.8398 -4.0750
v  20.9766 10.8398 4.0750
v  20.9766 8.8692 5.1151
v  19.9544 10.8398 4.0750
v  20.9766 0.0000 9.7966
v  19.4032 0.0000 9.7966
v  19.7382 8.8692 5.1151
v  20.9766 0.0000 12.3920
v  19.8235 8.8692 2.0682
v  20.0364 8.8692 -1.9230
v  19.9963 6.6922 -1.8966
v  19.8729 0.0000 -1.8154
v  19.7834 6.6939 2.0946
v  19.6601 0.0000 2.1758
v  19.8833 6.6928 2.0999
v  19.7599 -0.0011 2.1811
v  19.9728 -0.0011 -1.8101
v  20.0961 6.6911 -1.8912
v  -17.3370 0.0000 -9.7966
v  -18.1685 0.0000 -9.7966
v  -18.1685 0.0000 -12.3920
v  -18.1685 0.0000 12.3920
v  -18.1685 0.0000 9.7966
v  -16.5951 0.0000 9.7966
v  -17.3174 8.8692 -5.1151
v  -18.1685 8.8692 -5.1151
v  -18.1685 10.8398 -4.0750
v  -18.1685 18.5601 -0.0000
v  -18.1685 23.6476 -0.0000
v  -17.4549 10.8398 -4.0750
v  -17.4379 18.5601 -0.0000
v  -18.1685 8.8692 5.1151
v  -18.1685 10.8398 4.0750
v  -17.1463 10.8398 4.0750
v  -16.9301 8.8692 5.1151
v  -17.2282 8.8692 -1.9230
v  -17.0154 8.8692 2.0682
v  -17.0648 0.0000 -1.8154
v  -17.1881 6.6922 -1.8966
v  -16.9753 6.6939 2.0946
v  -16.8519 0.0000 2.1758
v  -17.0751 6.6928 2.0999
v  -17.2880 6.6911 -1.8912
v  -17.1646 -0.0011 -1.8101
v  -16.9518 -0.0011 2.1811
v  2.4232 -0.0000 35.4072
v  -5.0293 -0.0000 35.4072
v  -1.3030 18.7483 37.5586
v  -1.3030 -0.0000 41.8613
v  -1.1295 -0.0000 30.5492
v  -4.8338 -0.0000 30.8732
v  -2.8881 9.3544 31.7805
v  -2.7010 -0.0000 33.9192
v  12.2989 -0.0000 38.3677
v  7.3200 -0.0000 39.2456
v  10.0629 12.7187 40.2439
v  10.5698 -0.0000 43.1185
v  -499.4781 0.0010 -498.1140
v  -499.4781 0.0010 501.8861
v  500.5219 0.0010 501.8860
v  500.5219 0.0010 -498.1140
v  -43.0774 0.0000 23.3454
v  -46.7816 0.0000 23.6695
v  -44.8359 9.3544 24.5768
v  -44.6488 0.0000 26.7155
# 98 vertices

vn 0.8521 0.1786 -0.4920
vn -0.8521 0.1786 -0.4920
vn 0.0000 1.0000 -0.0000
vn -0.0000 0.1786 0.9839
vn -0.0000 1.0000 -0.0000
vn 0.0000 0.1786 0.9839
vn 0.7537 0.1786 -0.6325
vn -0.9246 0.1786 -0.3365
vn -0.0000 1.0000 0.0000
vn 0.1709 0.1786 0.9690
vn 0.8060 0.1786 -0.5644
vn -0.8917 0.1786 -0.4158
vn 0.0858 0.1786 0.9802
vn 0.6011 -0.6651 0.4431
vn 0.5920 -0.5293 0.6077
vn 0.5909 -0.6683 0.4519
vn 0.2087 -0.9414 0.2649
vn 0.5595 -0.4604 -0.6892
vn 0.5469 0.8372 -0.0000
vn 0.9766 -0.2152 0.0001
vn 0.9376 0.3444 -0.0469
vn 0.5403 -0.8414 0.0021
vn 0.5483 0.4604 0.6981
vn 0.8015 0.0367 -0.5969
vn 0.9210 -0.3551 0.1604
vn 0.5775 0.4536 -0.6788
vn 0.6011 -0.6651 -0.4431
vn 0.2075 -0.9471 -0.2447
vn 0.6011 -0.6710 -0.4342
vn 0.5595 -0.4604 0.6892
vn 0.7043 -0.7093 0.0287
vn 0.7143 0.6992 0.0290
vn 0.9215 0.2849 -0.2641
vn 0.3102 -0.9053 -0.2902
vn 0.5983 0.2797 0.7509
vn 0.5500 0.5762 0.6045
vn 0.5546 0.5720 0.6043
vn 0.5370 -0.5826 0.6101
vn 0.5994 -0.5882 -0.5429
vn 0.6149 0.5663 -0.5488
vn -0.2087 -0.9414 0.2649
vn -0.6010 -0.6652 0.4430
vn -0.5595 -0.4604 -0.6892
vn -0.5595 -0.4604 0.6892
vn -0.6010 -0.6652 -0.4430
vn -0.2075 -0.9471 -0.2447
vn -0.5909 -0.6683 0.4519
vn -0.0799 -0.6152 0.7843
vn -0.9581 0.2762 0.0756
vn -0.9766 -0.2152 -0.0001
vn -0.5469 0.8372 0.0000
vn -0.5483 0.4604 0.6981
vn -0.5403 -0.8414 0.0021
vn -0.7484 -0.4780 -0.4598
vn -0.9602 0.2337 -0.1527
vn -0.5775 0.4536 -0.6788
vn -0.6011 -0.6710 -0.4342
vn -0.7143 0.6992 0.0290
vn -0.7043 -0.7093 0.0287
vn -0.3102 -0.9053 -0.2902
vn -0.5813 0.2692 -0.7679
vn 0.6188 0.6127 0.4915
vn -0.5500 0.5763 0.6045
vn -0.5545 0.5721 0.6044
vn -0.6150 0.5662 -0.5488
vn -0.5995 -0.5880 -0.5430
vn -0.5369 -0.5828 0.6100
vn 0.0000 1.0000 0.0000
# 68 vertex normals

vt 0.6839 0.5633 0.0000
vt 0.6839 0.5566 0.0000
vt 0.6937 0.5566 0.0000
vt 0.6839 0.5500 0.0000
vt 0.7143 0.5898 0.0000
vt 0.7054 0.5898 0.0000
vt 0.7099 0.5800 0.0000
vt 0.8049 0.3083 0.0000
vt 0.8049 0.3185 0.0000
vt 0.8056 0.3185 0.0000
vt 0.8056 0.3083 0.0000
vt 0.8049 0.3295 0.0000
vt 0.8049 0.3207 0.0000
vt 0.8055 0.3295 0.0000
vt 0.8055 0.3207 0.0000
vt 0.8058 0.3207 0.0000
vt 0.8062 0.3083 0.0000
vt 0.8060 0.3185 0.0000
vt 0.3171 0.9328 0.0000
vt 0.3171 0.9416 0.0000
vt 0.3174 0.9328 0.0000
vt 0.8059 0.3185 0.0000
vt 0.8057 0.3185 0.0000
vt 0.8077 0.1888 0.0000
vt 0.8077 0.1989 0.0000
vt 0.8078 0.1989 0.0000
vt 0.8078 0.1964 0.0000
vt 0.8079 0.1888 0.0000
vt 0.8079 0.1989 0.0000
vt 0.8080 0.1964 0.0000
vt 0.8080 0.1989 0.0000
vt 0.8083 0.1888 0.0000
vt 0.8081 0.1888 0.0000
vt 0.5566 0.6869 0.0000
vt 0.5567 0.6793 0.0000
vt 0.5565 0.6793 0.0000
vt 0.5564 0.6869 0.0000
vt 0.8060 0.3083 0.0000
vt 0.8058 0.3083 0.0000
vt 0.1710 0.7206 0.0000
vt 0.1710 0.6601 0.0000
vt 0.2253 0.6601 0.0000
vt 0.2253 0.7206 0.0000
# 43 texture coords

o Object012
g Object012
usemtl Stone__4__lambert2
s off
f 1/1/1 2/2/2 3/3/3 
f 2/2/2 4/4/4 3/3/3 
f 4/5/4 1/6/1 3/7/3 
f 5/1/1 6/2/2 7/3/5 
f 6/2/2 8/4/6 7/3/5 
f 8/5/6 5/6/1 7/7/5 
f 9/1/7 10/2/8 11/3/9 
f 10/2/8 12/4/10 11/3/9 
f 12/5/10 9/6/7 11/7/9 
f 13/1/11 14/2/12 15/3/9 
f 14/2/12 16/4/13 15/3/9 
f 16/5/13 13/6/11 15/7/9 
f 17/1/7 18/2/8 19/3/9 
f 18/2/8 20/4/10 19/3/9 
f 20/5/10 17/6/7 19/7/9 
f 21/1/1 22/2/2 23/3/3 
f 22/2/2 24/4/4 23/3/3 
f 24/5/4 21/6/1 23/7/3 
usemtl Tree_defaultMat
s 16
f 25/8/14 26/9/15 27/10/16 28/11/17 
s 1
f 29/8/18 30/12/19 31/12/20 32/13/21 26/9/15 25/8/14 
s 16
f 32/13/21 31/12/20 33/14/22 34/15/23 
s off
f 26/9/15 32/13/21 35/13/24 36/9/25 
f 32/13/21 34/15/23 37/16/26 35/13/24 
s 16
f 38/8/27 39/17/28 40/18/29 36/9/25 
s 1
f 41/8/30 38/8/27 36/9/25 35/13/24 31/12/20 30/12/19 
s 16
f 35/13/24 37/16/26 33/14/22 31/12/20 
s off
f 34/19/23 33/20/22 37/21/26 
f 27/10/16 26/9/15 36/9/25 40/18/29 42/22/31 43/23/32 
f 28/24/17 27/25/16 43/26/32 44/27/33 45/28/34 
f 43/26/32 42/29/31 46/30/35 44/27/33 
f 42/29/31 40/31/29 39/32/28 47/33/36 46/30/35 
f 48/34/37 49/35/38 50/36/39 51/37/40 
f 47/38/36 45/39/34 50/39/39 49/38/38 
f 45/36/34 44/37/33 51/37/40 50/36/39 
f 44/37/33 46/34/35 48/34/37 51/37/40 
f 46/34/35 47/35/36 49/35/38 48/34/37 
s 2
f 29/8/18 25/8/14 28/11/17 52/11/41 53/8/42 54/8/43 
f 39/17/28 38/8/27 41/8/30 55/8/44 56/8/45 57/17/46 
s 16
f 53/8/42 52/11/41 58/10/47 59/9/48 
s 1
f 54/8/43 53/8/42 59/9/48 60/13/49 61/12/50 62/12/51 
s 16
f 60/13/49 63/15/52 64/14/53 61/12/50 
s off
f 59/9/48 65/9/54 66/13/55 60/13/49 
f 60/13/49 66/13/55 67/16/56 63/15/52 
s 16
f 56/8/45 65/9/54 68/18/57 57/17/46 
s 1
f 55/8/44 62/12/51 61/12/50 66/13/55 65/9/54 56/8/45 
s 16
f 66/13/55 61/12/50 64/14/53 67/16/56 
s off
f 63/19/52 67/21/56 64/20/53 
f 58/10/47 69/23/58 70/22/59 68/18/57 65/9/54 59/9/48 
f 52/24/41 71/28/60 72/27/61 69/26/58 58/25/47 
f 69/26/58 72/27/61 73/30/62 70/29/59 
f 70/29/59 73/30/62 74/33/63 57/32/46 68/31/57 
f 75/34/64 76/37/65 77/36/66 78/35/67 
f 74/38/63 78/38/67 77/39/66 71/39/60 
f 71/36/60 77/36/66 76/37/65 72/37/61 
f 72/37/61 76/37/65 75/34/64 73/34/62 
f 73/34/62 75/34/64 78/35/67 74/35/63 
s 16
f 30/12/19 29/8/18 54/8/43 62/12/51 
f 41/8/30 30/12/19 62/12/51 55/8/44 
s off
f 71/39/60 52/11/41 28/11/17 45/39/34 47/38/36 39/17/28 57/17/46 74/38/63 
usemtl Stone__4__lambert2
f 79/1/1 80/2/2 81/3/9 
f 80/2/2 82/4/6 81/3/9 
f 82/5/6 79/6/1 81/7/9 
f 83/1/11 84/2/12 85/3/68 
f 84/2/12 86/4/13 85/3/68 
f 86/5/13 83/6/11 85/7/68 
f 87/1/7 88/2/8 89/3/3 
f 88/2/8 90/4/10 89/3/3 
f 90/5/10 87/6/7 89/7/3 
usemtl Tree_defaultMat
s 1
f 91/40/3 92/41/3 93/42/3 94/43/3 
usemtl Stone__4__lambert2
s off
f 95/1/11 96/2/12 97/3/68 
f 96/2/12 98/4/13 97/3/68 
f 98/5/13 95/6/11 97/7/68 
# 40 polygons - 32 triangles

